<svg width="21" height="20" viewBox="0 0 21 20" fill="none" xmlns="http://www.w3.org/2000/svg">
<path d="M4.83759 9.3375L8.97322 2.07625C9.1082 1.83922 9.30366 1.64226 9.53965 1.50548C9.77564 1.36871 10.0437 1.297 10.3165 1.2977C10.5892 1.2984 10.8569 1.37148 11.0922 1.50946C11.3275 1.64745 11.522 1.84541 11.6557 2.08312L15.867 9.56437H15.8601C16.3311 10.464 16.5762 11.4646 16.5745 12.48C16.5745 15.9531 13.7588 18.7687 10.2857 18.7687C6.81259 18.7687 3.99697 15.9531 3.99697 12.48C3.99697 11.3912 4.27322 10.3675 4.75947 9.475H4.75822L4.79759 9.40625L4.83759 9.3375Z" fill="url(#paint0_linear_283_2976)"/>
<path d="M4.83759 9.3375L8.97322 2.07625C9.1082 1.83922 9.30366 1.64226 9.53965 1.50548C9.77564 1.36871 10.0437 1.297 10.3165 1.2977C10.5892 1.2984 10.8569 1.37148 11.0922 1.50946C11.3275 1.64745 11.522 1.84541 11.6557 2.08312L15.867 9.56437H15.8601C16.3311 10.464 16.5762 11.4646 16.5745 12.48C16.5745 15.9531 13.7588 18.7687 10.2857 18.7687C6.81259 18.7687 3.99697 15.9531 3.99697 12.48C3.99697 11.3912 4.27322 10.3675 4.75947 9.475H4.75822L4.79759 9.40625L4.83759 9.3375Z" fill="url(#paint1_radial_283_2976)"/>
<path d="M4.83759 9.3375L8.97322 2.07625C9.1082 1.83922 9.30366 1.64226 9.53965 1.50548C9.77564 1.36871 10.0437 1.297 10.3165 1.2977C10.5892 1.2984 10.8569 1.37148 11.0922 1.50946C11.3275 1.64745 11.522 1.84541 11.6557 2.08312L15.867 9.56437H15.8601C16.3311 10.464 16.5762 11.4646 16.5745 12.48C16.5745 15.9531 13.7588 18.7687 10.2857 18.7687C6.81259 18.7687 3.99697 15.9531 3.99697 12.48C3.99697 11.3912 4.27322 10.3675 4.75947 9.475H4.75822L4.79759 9.40625L4.83759 9.3375Z" fill="url(#paint2_radial_283_2976)"/>
<path d="M4.83759 9.3375L8.97322 2.07625C9.1082 1.83922 9.30366 1.64226 9.53965 1.50548C9.77564 1.36871 10.0437 1.297 10.3165 1.2977C10.5892 1.2984 10.8569 1.37148 11.0922 1.50946C11.3275 1.64745 11.522 1.84541 11.6557 2.08312L15.867 9.56437H15.8601C16.3311 10.464 16.5762 11.4646 16.5745 12.48C16.5745 15.9531 13.7588 18.7687 10.2857 18.7687C6.81259 18.7687 3.99697 15.9531 3.99697 12.48C3.99697 11.3912 4.27322 10.3675 4.75947 9.475H4.75822L4.79759 9.40625L4.83759 9.3375Z" fill="url(#paint3_radial_283_2976)"/>
<path d="M4.83759 9.3375L8.97322 2.07625C9.1082 1.83922 9.30366 1.64226 9.53965 1.50548C9.77564 1.36871 10.0437 1.297 10.3165 1.2977C10.5892 1.2984 10.8569 1.37148 11.0922 1.50946C11.3275 1.64745 11.522 1.84541 11.6557 2.08312L15.867 9.56437H15.8601C16.3311 10.464 16.5762 11.4646 16.5745 12.48C16.5745 15.9531 13.7588 18.7687 10.2857 18.7687C6.81259 18.7687 3.99697 15.9531 3.99697 12.48C3.99697 11.3912 4.27322 10.3675 4.75947 9.475H4.75822L4.79759 9.40625L4.83759 9.3375Z" fill="url(#paint4_linear_283_2976)"/>
<defs>
<linearGradient id="paint0_linear_283_2976" x1="10.2857" y1="5.46875" x2="10.2857" y2="18.2812" gradientUnits="userSpaceOnUse">
<stop stop-color="#FD4452"/>
<stop offset="1" stop-color="#FF1F5D"/>
</linearGradient>
<radialGradient id="paint1_radial_283_2976" cx="0" cy="0" r="1" gradientUnits="userSpaceOnUse" gradientTransform="translate(10.2857 7.97937) rotate(90) scale(10.7904 9.49725)">
<stop offset="0.901" stop-color="#FE7C86" stop-opacity="0"/>
<stop offset="1" stop-color="#FE7C86"/>
</radialGradient>
<radialGradient id="paint2_radial_283_2976" cx="0" cy="0" r="1" gradientUnits="userSpaceOnUse" gradientTransform="translate(14.897 11.3744) rotate(143.778) scale(6.415 4.02611)">
<stop stop-color="#FEB4BA"/>
<stop offset="1" stop-color="#FEB4BA" stop-opacity="0"/>
</radialGradient>
<radialGradient id="paint3_radial_283_2976" cx="0" cy="0" r="1" gradientUnits="userSpaceOnUse" gradientTransform="translate(12.952 2.475) rotate(61.928) scale(9.52631 4.69903)">
<stop stop-color="#FEA2A9"/>
<stop offset="1" stop-color="#FEA2A9" stop-opacity="0"/>
</radialGradient>
<linearGradient id="paint4_linear_283_2976" x1="6.10634" y1="6.71875" x2="10.2857" y2="8.125" gradientUnits="userSpaceOnUse">
<stop offset="0.032" stop-color="#E43D4A"/>
<stop offset="1" stop-color="#FD4452" stop-opacity="0"/>
</linearGradient>
</defs>
</svg>
