<svg width="28" height="33" viewBox="0 0 28 33" fill="none" xmlns="http://www.w3.org/2000/svg">
<path fill-rule="evenodd" clip-rule="evenodd" d="M11.4798 16.5565C12.5229 15.722 13.3985 14.622 14 13.4C14.6015 14.622 15.4771 15.722 16.5202 16.5565C17.8794 17.6439 18.48 18.8635 18.48 20.0802C18.48 21.2683 18.008 22.4078 17.1678 23.248C16.3277 24.0882 15.1882 24.5602 14 24.5602C12.8118 24.5602 11.6723 24.0882 10.8322 23.248C9.992 22.4078 9.52 21.2683 9.52 20.0802C9.52 18.8635 10.1206 17.6439 11.4798 16.5565Z" fill="#FF699C"/>
<path fill-rule="evenodd" clip-rule="evenodd" d="M11.6821 27.6536C13.6429 28.1787 15.7238 28.0226 17.5843 27.2109C19.4448 26.3993 20.9746 24.9801 21.9235 23.1857C21.992 23.0556 22.0855 22.9402 22.1986 22.8462C22.3118 22.7522 22.4423 22.6814 22.5827 22.6378C22.7232 22.5943 22.8709 22.5788 23.0174 22.5923C23.1638 22.6058 23.3062 22.648 23.4363 22.7166C23.5665 22.7851 23.6818 22.8786 23.7758 22.9917C23.8698 23.1048 23.9407 23.2353 23.9842 23.3758C24.0278 23.5163 24.0433 23.6639 24.0298 23.8104C24.0163 23.9569 23.974 24.0992 23.9055 24.2294C21.5204 28.7532 16.2508 31.1954 11.1021 29.817C5.12812 28.2157 1.58405 22.076 3.1842 16.1021C4.78435 10.1281 10.9252 6.58406 16.898 8.1842C19.2648 8.81774 21.3586 10.2101 22.8581 12.1478C24.3577 14.0854 25.1804 16.4615 25.2 18.9116C25.2078 19.9227 24.0858 20.4815 23.2818 19.9418L20.2887 17.9239C19.1599 17.1625 19.9169 15.4033 21.2449 15.7001L22.4296 15.9644C21.9074 14.515 21.0203 13.2249 19.8539 12.2185C18.6875 11.2122 17.2813 10.5236 15.7711 10.2193C14.2609 9.91509 12.6978 10.0054 11.2327 10.4816C9.76767 10.9579 8.45016 11.8038 7.40748 12.9379C6.36481 14.0719 5.6322 15.4557 5.28043 16.9555C4.92866 18.4553 4.96962 20.0205 5.39935 21.4999C5.82908 22.9793 6.63306 24.3228 7.73363 25.4008C8.83419 26.4788 10.1941 27.2547 11.6821 27.6536Z" fill="#FF699C"/>
</svg>
